The Boondock Saints {Unrated 2006}

Two Irish brothers accidentally killed mafia thugs. They turned themselves in and were released as heroes. They then see it as a calling by God and started knocking off mafia gang members one by one. Willem Dafoe plays the detective trying to figure out the killings, but the closer he was to catching the Irish brothers, the more he thinks the brothers are doing the right thing.
 
http://www.imdb.com/title/tt0144117/

General
Complete name :The Boondock Saints {Unrated 2006} DVDRip.Xvid~Wolftatt2~.avi
Format : AVI
Format/Info : Audio Video Interleave
Format profile : OpenDML
File size : 1.76 GiB
Duration : 1h 48mn
Overall bit rate : 2 323 Kbps
Movie name : BOONDOCK_SAINTS_D1.Title1.DVDRip
Writing application : Lavf52.78.4
Original source form/Name : BOONDOCK_SAINTS_D1

Video
ID : 0
Format : MPEG-4 Visual
Format profile : Advanced Simple@L5
Format settings, BVOP : 2
Format settings, QPel : No
Format settings, GMC : No warppoints
Format settings, Matrix : Default (H.263)
Muxing mode : Packed bitstream
Codec ID : XVID
Codec ID/Hint : XviD
Duration : 1h 48mn
Bit rate : 1 864 Kbps
Width : 720 pixels
Height : 540 pixels
Display aspect ratio : 4:3
Frame rate : 23.976 fps
Color space : YUV
Chroma subsampling : 4:2:0
Bit depth : 8 bits
Scan type : Progressive
Compression mode : Lossy
Bits/(Pixel*Frame) : 0.200
Stream size : 1.41 GiB (80%)
Writing library : XviD 1.2.1 (UTC 2008-12-04)

Audio
ID : 1
Format : AC-3
Format/Info : Audio Coding 3
Mode extension : CM (complete main)
Codec ID : 2000
Duration : 1h 48mn
Bit rate mode : Constant
Bit rate : 448 Kbps
Channel(s) : 6 channels
Channel positions : Front: L C R, Side: L R, LFE
Sampling rate : 48.0 KHz
Bit depth : 16 bits
Compression mode : Lossy
Stream size : 347 MiB (19%)
Alignment : Aligned on interleaves
Interleave, duration : 32 ms (0.77 video frame)
Interleave, preload duration : 32 ms



Thanks for Downloading!

Enjoy, and Please Seed!

~Wolftatt2~